<mxfile host="app.diagrams.net" modified="2024-06-06T20:38:16.487Z" agent="Mozilla/5.0 (Windows NT 10.0; Win64; x64) AppleWebKit/537.36 (KHTML, like Gecko) Chrome/125.0.0.0 Safari/537.36 Edg/125.0.0.0" etag="0uV84cWjvU9p71k9EQye" version="24.5.1" type="device">
  <diagram name="Strona-1" id="MppruRx3QJBBJqBwcU29">
    <mxGraphModel dx="867" dy="476" grid="1" gridSize="10" guides="1" tooltips="1" connect="1" arrows="1" fold="1" page="1" pageScale="1" pageWidth="827" pageHeight="1169" math="0" shadow="0">
      <root>
        <mxCell id="0" />
        <mxCell id="1" parent="0" />
        <mxCell id="qe7ebwJnnEiPNI-hVlHU-1" value="ZamÃ³wienia" style="swimlane;fontStyle=1;align=center;verticalAlign=top;childLayout=stackLayout;horizontal=1;startSize=26;horizontalStack=0;resizeParent=1;resizeParentMax=0;resizeLast=0;collapsible=1;marginBottom=0;whiteSpace=wrap;html=1;" parent="1" vertex="1">
          <mxGeometry x="92" y="39" width="160" height="60" as="geometry" />
        </mxCell>
        <mxCell id="qe7ebwJnnEiPNI-hVlHU-2" value="- idZamowienia" style="text;strokeColor=none;fillColor=none;align=left;verticalAlign=top;spacingLeft=4;spacingRight=4;overflow=hidden;rotatable=0;points=[[0,0.5],[1,0.5]];portConstraint=eastwest;whiteSpace=wrap;html=1;" parent="qe7ebwJnnEiPNI-hVlHU-1" vertex="1">
          <mxGeometry y="26" width="160" height="26" as="geometry" />
        </mxCell>
        <mxCell id="qe7ebwJnnEiPNI-hVlHU-3" value="" style="line;strokeWidth=1;fillColor=none;align=left;verticalAlign=middle;spacingTop=-1;spacingLeft=3;spacingRight=3;rotatable=0;labelPosition=right;points=[];portConstraint=eastwest;strokeColor=inherit;" parent="qe7ebwJnnEiPNI-hVlHU-1" vertex="1">
          <mxGeometry y="52" width="160" height="8" as="geometry" />
        </mxCell>
        <mxCell id="qe7ebwJnnEiPNI-hVlHU-4" value="Nabywcy" style="swimlane;fontStyle=1;align=center;verticalAlign=top;childLayout=stackLayout;horizontal=1;startSize=26;horizontalStack=0;resizeParent=1;resizeParentMax=0;resizeLast=0;collapsible=1;marginBottom=0;whiteSpace=wrap;html=1;" parent="1" vertex="1">
          <mxGeometry x="397" y="30" width="160" height="78" as="geometry" />
        </mxCell>
        <mxCell id="qe7ebwJnnEiPNI-hVlHU-5" value="- idNabywcy&lt;div&gt;- adres&lt;/div&gt;" style="text;strokeColor=none;fillColor=none;align=left;verticalAlign=top;spacingLeft=4;spacingRight=4;overflow=hidden;rotatable=0;points=[[0,0.5],[1,0.5]];portConstraint=eastwest;whiteSpace=wrap;html=1;" parent="qe7ebwJnnEiPNI-hVlHU-4" vertex="1">
          <mxGeometry y="26" width="160" height="44" as="geometry" />
        </mxCell>
        <mxCell id="qe7ebwJnnEiPNI-hVlHU-6" value="" style="line;strokeWidth=1;fillColor=none;align=left;verticalAlign=middle;spacingTop=-1;spacingLeft=3;spacingRight=3;rotatable=0;labelPosition=right;points=[];portConstraint=eastwest;strokeColor=inherit;" parent="qe7ebwJnnEiPNI-hVlHU-4" vertex="1">
          <mxGeometry y="70" width="160" height="8" as="geometry" />
        </mxCell>
        <mxCell id="qe7ebwJnnEiPNI-hVlHU-8" value="OsobaFizyczna" style="swimlane;fontStyle=1;align=center;verticalAlign=top;childLayout=stackLayout;horizontal=1;startSize=26;horizontalStack=0;resizeParent=1;resizeParentMax=0;resizeLast=0;collapsible=1;marginBottom=0;whiteSpace=wrap;html=1;" parent="1" vertex="1">
          <mxGeometry x="667" y="30" width="160" height="130" as="geometry" />
        </mxCell>
        <mxCell id="qe7ebwJnnEiPNI-hVlHU-9" value="- idOsobyFizycznej&lt;div&gt;- nazwisko&lt;/div&gt;&lt;div&gt;- imie&lt;/div&gt;" style="text;strokeColor=none;fillColor=none;align=left;verticalAlign=top;spacingLeft=4;spacingRight=4;overflow=hidden;rotatable=0;points=[[0,0.5],[1,0.5]];portConstraint=eastwest;whiteSpace=wrap;html=1;" parent="qe7ebwJnnEiPNI-hVlHU-8" vertex="1">
          <mxGeometry y="26" width="160" height="74" as="geometry" />
        </mxCell>
        <mxCell id="qe7ebwJnnEiPNI-hVlHU-10" value="" style="line;strokeWidth=1;fillColor=none;align=left;verticalAlign=middle;spacingTop=-1;spacingLeft=3;spacingRight=3;rotatable=0;labelPosition=right;points=[];portConstraint=eastwest;strokeColor=inherit;" parent="qe7ebwJnnEiPNI-hVlHU-8" vertex="1">
          <mxGeometry y="100" width="160" height="30" as="geometry" />
        </mxCell>
        <mxCell id="qe7ebwJnnEiPNI-hVlHU-12" value="Dostawy" style="swimlane;fontStyle=1;align=center;verticalAlign=top;childLayout=stackLayout;horizontal=1;startSize=26;horizontalStack=0;resizeParent=1;resizeParentMax=0;resizeLast=0;collapsible=1;marginBottom=0;whiteSpace=wrap;html=1;" parent="1" vertex="1">
          <mxGeometry x="77" y="249" width="160" height="86" as="geometry" />
        </mxCell>
        <mxCell id="qe7ebwJnnEiPNI-hVlHU-13" value="- idDostawy" style="text;strokeColor=none;fillColor=none;align=left;verticalAlign=top;spacingLeft=4;spacingRight=4;overflow=hidden;rotatable=0;points=[[0,0.5],[1,0.5]];portConstraint=eastwest;whiteSpace=wrap;html=1;" parent="qe7ebwJnnEiPNI-hVlHU-12" vertex="1">
          <mxGeometry y="26" width="160" height="26" as="geometry" />
        </mxCell>
        <mxCell id="qe7ebwJnnEiPNI-hVlHU-14" value="- wiadomosc" style="text;strokeColor=none;fillColor=none;align=left;verticalAlign=top;spacingLeft=4;spacingRight=4;overflow=hidden;rotatable=0;points=[[0,0.5],[1,0.5]];portConstraint=eastwest;whiteSpace=wrap;html=1;" parent="qe7ebwJnnEiPNI-hVlHU-12" vertex="1">
          <mxGeometry y="52" width="160" height="26" as="geometry" />
        </mxCell>
        <mxCell id="qe7ebwJnnEiPNI-hVlHU-15" value="" style="line;strokeWidth=1;fillColor=none;align=left;verticalAlign=middle;spacingTop=-1;spacingLeft=3;spacingRight=3;rotatable=0;labelPosition=right;points=[];portConstraint=eastwest;strokeColor=inherit;" parent="qe7ebwJnnEiPNI-hVlHU-12" vertex="1">
          <mxGeometry y="78" width="160" height="8" as="geometry" />
        </mxCell>
        <mxCell id="qe7ebwJnnEiPNI-hVlHU-16" value="Firmy" style="swimlane;fontStyle=1;align=center;verticalAlign=top;childLayout=stackLayout;horizontal=1;startSize=26;horizontalStack=0;resizeParent=1;resizeParentMax=0;resizeLast=0;collapsible=1;marginBottom=0;whiteSpace=wrap;html=1;" parent="1" vertex="1">
          <mxGeometry x="657" y="279" width="160" height="100" as="geometry" />
        </mxCell>
        <mxCell id="qe7ebwJnnEiPNI-hVlHU-17" value="- idFirmy&lt;div&gt;- nazwa&lt;/div&gt;" style="text;strokeColor=none;fillColor=none;align=left;verticalAlign=top;spacingLeft=4;spacingRight=4;overflow=hidden;rotatable=0;points=[[0,0.5],[1,0.5]];portConstraint=eastwest;whiteSpace=wrap;html=1;" parent="qe7ebwJnnEiPNI-hVlHU-16" vertex="1">
          <mxGeometry y="26" width="160" height="44" as="geometry" />
        </mxCell>
        <mxCell id="qe7ebwJnnEiPNI-hVlHU-18" value="" style="line;strokeWidth=1;fillColor=none;align=left;verticalAlign=middle;spacingTop=-1;spacingLeft=3;spacingRight=3;rotatable=0;labelPosition=right;points=[];portConstraint=eastwest;strokeColor=inherit;" parent="qe7ebwJnnEiPNI-hVlHU-16" vertex="1">
          <mxGeometry y="70" width="160" height="30" as="geometry" />
        </mxCell>
        <mxCell id="qe7ebwJnnEiPNI-hVlHU-20" value="Pozycje" style="swimlane;fontStyle=1;align=center;verticalAlign=top;childLayout=stackLayout;horizontal=1;startSize=26;horizontalStack=0;resizeParent=1;resizeParentMax=0;resizeLast=0;collapsible=1;marginBottom=0;whiteSpace=wrap;html=1;" parent="1" vertex="1">
          <mxGeometry x="377" y="245" width="160" height="78" as="geometry" />
        </mxCell>
        <mxCell id="qe7ebwJnnEiPNI-hVlHU-21" value="- nrPozycji&lt;div&gt;- ilosc&lt;/div&gt;&lt;div&gt;&lt;br&gt;&lt;/div&gt;" style="text;strokeColor=none;fillColor=none;align=left;verticalAlign=top;spacingLeft=4;spacingRight=4;overflow=hidden;rotatable=0;points=[[0,0.5],[1,0.5]];portConstraint=eastwest;whiteSpace=wrap;html=1;" parent="qe7ebwJnnEiPNI-hVlHU-20" vertex="1">
          <mxGeometry y="26" width="160" height="44" as="geometry" />
        </mxCell>
        <mxCell id="qe7ebwJnnEiPNI-hVlHU-22" value="" style="line;strokeWidth=1;fillColor=none;align=left;verticalAlign=middle;spacingTop=-1;spacingLeft=3;spacingRight=3;rotatable=0;labelPosition=right;points=[];portConstraint=eastwest;strokeColor=inherit;" parent="qe7ebwJnnEiPNI-hVlHU-20" vertex="1">
          <mxGeometry y="70" width="160" height="8" as="geometry" />
        </mxCell>
        <mxCell id="qe7ebwJnnEiPNI-hVlHU-24" value="Towar" style="swimlane;fontStyle=1;align=center;verticalAlign=top;childLayout=stackLayout;horizontal=1;startSize=26;horizontalStack=0;resizeParent=1;resizeParentMax=0;resizeLast=0;collapsible=1;marginBottom=0;whiteSpace=wrap;html=1;" parent="1" vertex="1">
          <mxGeometry x="377" y="462" width="160" height="118" as="geometry" />
        </mxCell>
        <mxCell id="qe7ebwJnnEiPNI-hVlHU-25" value="- idTowaru&lt;div&gt;- nazwa&lt;/div&gt;&lt;div&gt;- cena&lt;/div&gt;&lt;div&gt;- opis&lt;/div&gt;&lt;div&gt;&lt;br&gt;&lt;/div&gt;" style="text;strokeColor=none;fillColor=none;align=left;verticalAlign=top;spacingLeft=4;spacingRight=4;overflow=hidden;rotatable=0;points=[[0,0.5],[1,0.5]];portConstraint=eastwest;whiteSpace=wrap;html=1;" parent="qe7ebwJnnEiPNI-hVlHU-24" vertex="1">
          <mxGeometry y="26" width="160" height="84" as="geometry" />
        </mxCell>
        <mxCell id="qe7ebwJnnEiPNI-hVlHU-26" value="" style="line;strokeWidth=1;fillColor=none;align=left;verticalAlign=middle;spacingTop=-1;spacingLeft=3;spacingRight=3;rotatable=0;labelPosition=right;points=[];portConstraint=eastwest;strokeColor=inherit;" parent="qe7ebwJnnEiPNI-hVlHU-24" vertex="1">
          <mxGeometry y="110" width="160" height="8" as="geometry" />
        </mxCell>
        <mxCell id="qe7ebwJnnEiPNI-hVlHU-28" value="" style="endArrow=open;html=1;rounded=0;exitX=1.006;exitY=0.116;exitDx=0;exitDy=0;exitPerimeter=0;" parent="1" source="qe7ebwJnnEiPNI-hVlHU-1" edge="1">
          <mxGeometry relative="1" as="geometry">
            <mxPoint x="267" y="49" as="sourcePoint" />
            <mxPoint x="397" y="49" as="targetPoint" />
          </mxGeometry>
        </mxCell>
        <mxCell id="qe7ebwJnnEiPNI-hVlHU-29" value="1..*" style="resizable=0;html=1;whiteSpace=wrap;align=left;verticalAlign=bottom;" parent="qe7ebwJnnEiPNI-hVlHU-28" connectable="0" vertex="1">
          <mxGeometry x="-1" relative="1" as="geometry">
            <mxPoint x="14" as="offset" />
          </mxGeometry>
        </mxCell>
        <mxCell id="qe7ebwJnnEiPNI-hVlHU-30" value="1..1" style="resizable=0;html=1;whiteSpace=wrap;align=right;verticalAlign=bottom;" parent="qe7ebwJnnEiPNI-hVlHU-28" connectable="0" vertex="1">
          <mxGeometry x="1" relative="1" as="geometry">
            <mxPoint x="-10" as="offset" />
          </mxGeometry>
        </mxCell>
        <mxCell id="qe7ebwJnnEiPNI-hVlHU-31" value="" style="endArrow=none;html=1;rounded=0;exitX=0.1;exitY=0.75;exitDx=0;exitDy=0;exitPerimeter=0;entryX=0.2;entryY=-0.027;entryDx=0;entryDy=0;entryPerimeter=0;" parent="1" source="qe7ebwJnnEiPNI-hVlHU-3" target="qe7ebwJnnEiPNI-hVlHU-12" edge="1">
          <mxGeometry relative="1" as="geometry">
            <mxPoint x="107.03999999999996" y="125" as="sourcePoint" />
            <mxPoint x="244" y="169" as="targetPoint" />
          </mxGeometry>
        </mxCell>
        <mxCell id="qe7ebwJnnEiPNI-hVlHU-32" value="1..*" style="resizable=0;html=1;whiteSpace=wrap;align=left;verticalAlign=bottom;" parent="qe7ebwJnnEiPNI-hVlHU-31" connectable="0" vertex="1">
          <mxGeometry x="-1" relative="1" as="geometry">
            <mxPoint x="-30" y="24" as="offset" />
          </mxGeometry>
        </mxCell>
        <mxCell id="qe7ebwJnnEiPNI-hVlHU-33" value="1..1" style="resizable=0;html=1;whiteSpace=wrap;align=right;verticalAlign=bottom;" parent="qe7ebwJnnEiPNI-hVlHU-31" connectable="0" vertex="1">
          <mxGeometry x="1" relative="1" as="geometry">
            <mxPoint x="-10" as="offset" />
          </mxGeometry>
        </mxCell>
        <mxCell id="qe7ebwJnnEiPNI-hVlHU-34" value="" style="endArrow=open;html=1;rounded=0;exitX=0.5;exitY=1;exitDx=0;exitDy=0;entryX=0.5;entryY=0;entryDx=0;entryDy=0;" parent="1" source="qe7ebwJnnEiPNI-hVlHU-20" target="qe7ebwJnnEiPNI-hVlHU-24" edge="1">
          <mxGeometry relative="1" as="geometry">
            <mxPoint x="461.96000000000004" y="368.2339999999999" as="sourcePoint" />
            <mxPoint x="618" y="490" as="targetPoint" />
          </mxGeometry>
        </mxCell>
        <mxCell id="qe7ebwJnnEiPNI-hVlHU-35" value="0..*" style="resizable=0;html=1;whiteSpace=wrap;align=left;verticalAlign=bottom;" parent="qe7ebwJnnEiPNI-hVlHU-34" connectable="0" vertex="1">
          <mxGeometry x="-1" relative="1" as="geometry">
            <mxPoint x="9" y="18" as="offset" />
          </mxGeometry>
        </mxCell>
        <mxCell id="qe7ebwJnnEiPNI-hVlHU-36" value="1..1" style="resizable=0;html=1;whiteSpace=wrap;align=right;verticalAlign=bottom;" parent="qe7ebwJnnEiPNI-hVlHU-34" connectable="0" vertex="1">
          <mxGeometry x="1" relative="1" as="geometry">
            <mxPoint x="30" y="-13" as="offset" />
          </mxGeometry>
        </mxCell>
        <mxCell id="qe7ebwJnnEiPNI-hVlHU-37" value="" style="endArrow=block;endSize=16;endFill=0;html=1;rounded=0;exitX=0;exitY=0;exitDx=0;exitDy=0;entryX=1;entryY=1;entryDx=0;entryDy=0;" parent="1" source="qe7ebwJnnEiPNI-hVlHU-16" target="qe7ebwJnnEiPNI-hVlHU-4" edge="1">
          <mxGeometry width="160" relative="1" as="geometry">
            <mxPoint x="330" y="400" as="sourcePoint" />
            <mxPoint x="556.04" y="151.00800000000004" as="targetPoint" />
          </mxGeometry>
        </mxCell>
        <mxCell id="qe7ebwJnnEiPNI-hVlHU-38" value="" style="endArrow=block;endSize=16;endFill=0;html=1;rounded=0;exitX=-0.006;exitY=0.122;exitDx=0;exitDy=0;entryX=1.019;entryY=0.25;entryDx=0;entryDy=0;entryPerimeter=0;exitPerimeter=0;" parent="1" source="qe7ebwJnnEiPNI-hVlHU-9" target="qe7ebwJnnEiPNI-hVlHU-5" edge="1">
          <mxGeometry width="160" relative="1" as="geometry">
            <mxPoint x="667" y="289" as="sourcePoint" />
            <mxPoint x="566" y="161" as="targetPoint" />
          </mxGeometry>
        </mxCell>
        <mxCell id="qe7ebwJnnEiPNI-hVlHU-39" value="" style="endArrow=none;endFill=0;endSize=24;html=1;rounded=0;exitX=0;exitY=0;exitDx=0;exitDy=0;entryX=1;entryY=1.154;entryDx=0;entryDy=0;entryPerimeter=0;" parent="1" source="qe7ebwJnnEiPNI-hVlHU-20" target="qe7ebwJnnEiPNI-hVlHU-2" edge="1">
          <mxGeometry width="160" relative="1" as="geometry">
            <mxPoint x="300" y="400" as="sourcePoint" />
            <mxPoint x="460" y="400" as="targetPoint" />
          </mxGeometry>
        </mxCell>
        <mxCell id="qe7ebwJnnEiPNI-hVlHU-40" value="1..*" style="resizable=0;html=1;whiteSpace=wrap;align=right;verticalAlign=bottom;" parent="1" connectable="0" vertex="1">
          <mxGeometry x="397.00212891955675" y="239.9966524214077" as="geometry" />
        </mxCell>
        <mxCell id="EtdbAY_5_3EnLGgu6hfR-1" value="1..1" style="resizable=0;html=1;whiteSpace=wrap;align=right;verticalAlign=bottom;" connectable="0" vertex="1" parent="1">
          <mxGeometry x="407.00212891955675" y="249.9966524214077" as="geometry">
            <mxPoint x="-129" y="-152" as="offset" />
          </mxGeometry>
        </mxCell>
      </root>
    </mxGraphModel>
  </diagram>
</mxfile>
